<svg width="1461" height="406" viewBox="0 0 1461 406" fill="none" xmlns="http://www.w3.org/2000/svg">
<path d="M258.23 221.686L205.638 193.886L114.346 145.636C114.263 145.553 114.096 145.553 114.013 145.553C110.68 143.97 107.263 147.303 108.513 150.636L155.03 269.278L155.038 269.303C155.088 269.42 155.13 269.537 155.18 269.653C157.088 274.078 161.255 276.812 165.788 277.887C166.171 277.97 166.446 278.046 166.906 278.137C167.364 278.239 168.005 278.378 168.555 278.42C168.646 278.428 168.73 278.428 168.821 278.437H168.888C168.955 278.445 169.021 278.445 169.088 278.453H169.18C169.238 278.462 169.305 278.462 169.363 278.462H169.471C169.538 278.47 169.605 278.47 169.671 278.47V278.47C228.583 284.893 288.018 284.893 346.93 278.47V278.47C347.638 278.47 348.33 278.437 348.997 278.37C349.213 278.345 349.422 278.32 349.63 278.295C349.655 278.287 349.688 278.287 349.713 278.278C349.855 278.262 349.997 278.237 350.138 278.212C350.347 278.187 350.555 278.145 350.763 278.103C351.18 278.012 351.37 277.945 351.935 277.751C352.5 277.556 353.439 277.216 354.027 276.933C354.614 276.65 355.022 276.378 355.513 276.07C356.122 275.687 356.7 275.294 357.287 274.854C357.54 274.66 357.713 274.537 357.897 274.362L357.797 274.303L258.23 221.686Z" fill="#808495"/>
<path d="M402.266 145.638H402.182L310.857 193.888L361.624 269.497L408.024 150.638V150.471C409.191 146.971 405.607 143.804 402.266 145.638" fill="#262730"/>
<path d="M263.097 122.695C260.764 119.287 255.68 119.287 253.43 122.695L205.638 193.887L258.23 221.687L357.897 274.362C358.523 273.749 359.025 273.152 359.556 272.521C360.306 271.596 361.006 270.604 361.622 269.496L310.856 193.887L263.097 122.695Z" fill="#555867"/>
<path d="M583.205 163.429H601.596C600.753 139.75 578.913 122.048 548.567 122.048C518.527 122.048 494.925 139.52 494.925 165.881C494.925 187.032 510.251 199.599 534.773 206.649L554.085 212.167C570.637 216.765 585.35 222.589 585.35 238.222C585.35 255.387 568.798 266.729 547.034 266.729C528.336 266.729 511.784 258.453 510.251 240.674H490.633C492.472 266.422 513.316 283.894 547.034 283.894C583.205 283.894 603.742 263.97 603.742 238.528C603.742 209.102 575.848 199.599 559.602 195.308L543.663 191.016C532.014 187.951 513.316 181.821 513.316 164.962C513.316 149.942 527.11 138.907 547.954 138.907C566.959 138.907 581.366 147.949 583.205 163.429ZM679.411 163.429H654.276V135.228H636.19V163.429H618.412V178.755H636.19V252.322C636.19 272.859 652.743 282.668 668.069 282.668C674.813 282.668 679.104 281.442 681.557 280.523L677.878 264.277C676.346 264.583 673.893 265.196 669.908 265.196C661.939 265.196 654.276 262.744 654.276 247.418V178.755H679.411V163.429ZM702.299 281.136H720.384V206.649C720.384 190.71 732.952 179.062 750.118 179.062C754.946 179.062 759.927 179.981 761.153 180.288V161.896C759.084 161.743 754.332 161.59 751.65 161.59C737.55 161.59 725.289 169.559 720.998 181.208H719.771V163.429H702.299V281.136ZM824.043 283.588C847.952 283.588 865.424 271.633 870.942 253.855L853.47 248.95C848.872 261.211 838.22 267.342 824.043 267.342C802.816 267.342 788.179 253.625 787.336 228.413H872.781V220.75C872.781 176.916 846.726 161.896 822.204 161.896C790.325 161.896 769.175 187.032 769.175 223.202C769.175 259.372 790.018 283.588 824.043 283.588ZM787.336 212.78C788.562 194.465 801.513 178.142 822.204 178.142C841.822 178.142 854.389 192.856 854.389 212.78H787.336ZM930.614 283.894C951.151 283.894 961.88 272.859 965.558 265.196H966.478V281.136H984.563V203.584C984.563 166.188 956.056 161.896 941.036 161.896C923.257 161.896 903.026 168.027 893.83 189.484L910.996 195.614C914.981 187.032 924.407 177.836 941.649 177.836C958.278 177.836 966.478 186.648 966.478 201.745V202.358C966.478 211.094 957.588 210.328 936.131 213.086C914.291 215.922 890.459 220.75 890.459 247.724C890.459 270.714 908.237 283.894 930.614 283.894ZM933.373 267.649C918.966 267.649 908.544 261.211 908.544 248.644C908.544 234.85 921.111 230.559 935.212 228.719C942.875 227.8 963.412 225.654 966.478 221.976V238.528C966.478 253.242 954.829 267.649 933.373 267.649ZM1013.26 281.136H1031.34V207.569C1031.34 190.327 1043.91 178.142 1058.01 178.142C1071.73 178.142 1081.31 187.108 1081.31 200.519V281.136H1099.7V204.504C1099.7 189.331 1109.2 178.142 1125.75 178.142C1138.63 178.142 1149.66 184.963 1149.66 202.358V281.136H1167.75V202.358C1167.75 174.694 1152.88 161.896 1131.88 161.896C1115.02 161.896 1102.69 169.636 1096.63 181.821H1095.41C1089.58 169.253 1079.31 161.896 1063.83 161.896C1048.51 161.896 1037.17 169.253 1032.26 181.821H1030.73V163.429H1013.26V281.136ZM1214.58 124.193H1196.5V281.136H1214.58V124.193ZM1243.39 281.136H1261.48V163.429H1243.39V281.136ZM1252.59 143.811C1259.64 143.811 1265.46 138.294 1265.46 131.55C1265.46 124.806 1259.64 119.289 1252.59 119.289C1245.54 119.289 1239.71 124.806 1239.71 131.55C1239.71 138.294 1245.54 143.811 1252.59 143.811ZM1341.47 163.429H1316.34V135.228H1298.25V163.429H1280.48V178.755H1298.25V252.322C1298.25 272.859 1314.81 282.668 1330.13 282.668C1336.88 282.668 1341.17 281.442 1343.62 280.523L1339.94 264.277C1338.41 264.583 1335.96 265.196 1331.97 265.196C1324 265.196 1316.34 262.744 1316.34 247.418V178.755H1341.47V163.429Z" fill="#262730"/>
</svg>
